<svg viewBox="0 0 20 20" xmlns="http://www.w3.org/2000/svg">
	<path d="M18.125 0H5.625C4.58945 0 3.75 0.839453 3.75 1.875V3.75H1.875C0.839453 3.75 0 4.58945 0 5.625V18.125C0 19.1605 0.839453 20 1.875 20H14.375C15.4105 20 16.25 19.1605 16.25 18.125V16.25H18.125C19.1605 16.25 20 15.4105 20 14.375V1.875C20 0.839453 19.1605 0 18.125 0ZM14.1406 18.125H2.10938C2.04721 18.125 1.9876 18.1003 1.94365 18.0564C1.89969 18.0124 1.875 17.9528 1.875 17.8906V5.85938C1.875 5.79721 1.89969 5.7376 1.94365 5.69365C1.9876 5.64969 2.04721 5.625 2.10938 5.625H3.75V14.375C3.75 15.4105 4.58945 16.25 5.625 16.25H14.375V17.8906C14.375 17.9528 14.3503 18.0124 14.3064 18.0564C14.2624 18.1003 14.2028 18.125 14.1406 18.125ZM17.8906 14.375H5.85938C5.79721 14.375 5.7376 14.3503 5.69365 14.3064C5.64969 14.2624 5.625 14.2028 5.625 14.1406V2.10938C5.625 2.04721 5.64969 1.9876 5.69365 1.94365C5.7376 1.89969 5.79721 1.875 5.85938 1.875H17.8906C17.9528 1.875 18.0124 1.89969 18.0564 1.94365C18.1003 1.9876 18.125 2.04721 18.125 2.10938V14.1406C18.125 14.2028 18.1003 14.2624 18.0564 14.3064C18.0124 14.3503 17.9528 14.375 17.8906 14.375Z"/>
</svg>